<svg width="20" height="20" viewBox="0 0 20 20" fill="none" xmlns="http://www.w3.org/2000/svg">
<g clip-path="url(#clip0_7102_1620)">
<path d="M2.99245 17.8415H6.68098V10.8743H13.2384V17.8415H16.9269V7.37704L9.95967 2.15846L2.99245 7.37704V17.8415ZM2.99245 20C2.39136 20 1.88134 19.7905 1.4624 19.3716C1.04346 18.9526 0.833984 18.4426 0.833984 17.8415V7.37704C0.833984 7.04917 0.911398 6.73041 1.06622 6.42076C1.22105 6.1111 1.43508 5.8561 1.7083 5.65573L8.64819 0.437153C8.84856 0.291433 9.06258 0.182144 9.29027 0.109284C9.51795 0.0364243 9.74109 -5.72205e-06 9.95967 -5.72205e-06C10.1965 -5.72205e-06 10.4241 0.0364243 10.6427 0.109284C10.8613 0.182144 11.0708 0.291433 11.2711 0.437153L18.211 5.65573C18.4843 5.8561 18.7028 6.1111 18.8668 6.42076C19.0307 6.73041 19.1127 7.04917 19.1127 7.37704V17.8415C19.1127 18.4426 18.8986 18.9526 18.4706 19.3716C18.0425 19.7905 17.528 20 16.9269 20H11.2438V12.8688H8.67551V20H2.99245Z" fill="#B8BABC"/>
</g>
<defs>
<clipPath id="clip0_7102_1620">
<rect width="20" height="20" fill="white"/>
</clipPath>
</defs>
</svg>
