<svg width="20" height="20" viewBox="0 0 20 20" fill="none" xmlns="http://www.w3.org/2000/svg">
<g clip-path="url(#clip0_7102_4012)">
<path d="M7.26176 19.4934C7.00442 19.4934 6.78327 19.4009 6.59831 19.2159C6.41335 19.031 6.32087 18.8018 6.32087 18.5283C6.32087 18.2549 6.41335 18.0257 6.59831 17.8408C6.78327 17.6558 7.00442 17.5633 7.26176 17.5633H8.39566V15.1508H1.90591C1.37515 15.1508 0.924809 14.9658 0.554885 14.5959C0.184962 14.226 0 13.7756 0 13.2449V1.90591C0 1.37515 0.184962 0.924809 0.554885 0.554885C0.924809 0.184962 1.37515 0 1.90591 0H18.07C18.6007 0 19.0551 0.184962 19.4331 0.554885C19.811 0.924809 20 1.37515 20 1.90591V13.2449C20 13.7756 19.811 14.226 19.4331 14.5959C19.0551 14.9658 18.6007 15.1508 18.07 15.1508H11.5802V17.5633H12.7141C12.9715 17.5633 13.1926 17.6558 13.3776 17.8408C13.5625 18.0257 13.655 18.2549 13.655 18.5283C13.655 18.8018 13.5625 19.031 13.3776 19.2159C13.1926 19.4009 12.9715 19.4934 12.7141 19.4934H7.26176ZM1.90591 13.2449H18.07V1.90591H1.90591V13.2449ZM1.90591 13.2449V1.90591V13.2449Z" fill="#153AC7"/>
</g>
<defs>
<clipPath id="clip0_7102_4012">
<rect width="20" height="20" fill="white"/>
</clipPath>
</defs>
</svg>
