<svg width="20" height="21" viewBox="0 0 20 21" fill="none" xmlns="http://www.w3.org/2000/svg">
<g clip-path="url(#clip0_1_18587)">
<path d="M2.99245 18.0408H6.68098V11.0736H13.2384V18.0408H16.9269V7.57633L9.95967 2.35775L2.99245 7.57633V18.0408ZM2.99245 20.1993C2.39136 20.1993 1.88134 19.9898 1.4624 19.5709C1.04346 19.1519 0.833984 18.6419 0.833984 18.0408V7.57633C0.833984 7.24846 0.911398 6.9297 1.06622 6.62004C1.22105 6.31039 1.43508 6.05538 1.7083 5.85502L8.64819 0.636438C8.84856 0.490719 9.06258 0.381429 9.29027 0.30857C9.51795 0.23571 9.74109 0.19928 9.95967 0.19928C10.1965 0.19928 10.4241 0.23571 10.6427 0.30857C10.8613 0.381429 11.0708 0.490719 11.2711 0.636438L18.211 5.85502C18.4843 6.05538 18.7028 6.31039 18.8668 6.62004C19.0307 6.9297 19.1127 7.24846 19.1127 7.57633V18.0408C19.1127 18.6419 18.8986 19.1519 18.4706 19.5709C18.0425 19.9898 17.528 20.1993 16.9269 20.1993H11.2438V13.0681H8.67551V20.1993H2.99245Z" fill="black"/>
</g>
<defs>
<clipPath id="clip0_1_18587">
<rect width="20" height="20" fill="white" transform="translate(0 0.19928)"/>
</clipPath>
</defs>
</svg>
