<svg width="16" height="17" viewBox="0 0 16 17" fill="none" xmlns="http://www.w3.org/2000/svg">
<g clip-path="url(#clip0_7102_1430)">
<path d="M2.39279 14.5722H5.34361V8.9984H10.5895V14.5722H13.5403V6.20059L7.96656 2.02573L2.39279 6.20059V14.5722ZM2.39279 16.2989C1.91192 16.2989 1.5039 16.1314 1.16875 15.7962C0.833593 15.4611 0.666016 15.053 0.666016 14.5722V6.20059C0.666016 5.93829 0.727946 5.68328 0.851808 5.43556C0.975669 5.18784 1.14689 4.98383 1.36547 4.82354L6.91738 0.648677C7.07767 0.532101 7.24889 0.44467 7.43104 0.386382C7.61319 0.328094 7.7917 0.29895 7.96656 0.29895C8.156 0.29895 8.33815 0.328094 8.51301 0.386382C8.68787 0.44467 8.85545 0.532101 9.01574 0.648677L14.5677 4.82354C14.7862 4.98383 14.9611 5.18784 15.0922 5.43556C15.2234 5.68328 15.289 5.93829 15.289 6.20059V14.5722C15.289 15.053 15.1177 15.4611 14.7753 15.7962C14.4329 16.1314 14.0212 16.2989 13.5403 16.2989H8.99388V10.594H6.93924V16.2989H2.39279Z" fill="#B8BABC"/>
</g>
<defs>
<clipPath id="clip0_7102_1430">
<rect width="16" height="16" fill="white" transform="translate(0 0.29895)"/>
</clipPath>
</defs>
</svg>
