<svg width="16" height="16" viewBox="0 0 16 16" fill="none" xmlns="http://www.w3.org/2000/svg">
<path d="M14.2063 12.1354L13.1479 11.0769V6.97436C13.1479 4.45538 11.8022 2.34667 9.45557 1.78872V1.23077C9.45557 0.549744 8.90583 0 8.2248 0C7.54378 0 6.99403 0.549744 6.99403 1.23077V1.78872C4.63916 2.34667 3.30172 4.44718 3.30172 6.97436V11.0769L2.24326 12.1354C1.72634 12.6523 2.08737 13.5385 2.81762 13.5385H13.6238C14.3622 13.5385 14.7233 12.6523 14.2063 12.1354ZM11.5069 11.8974H4.94275V6.97436C4.94275 4.93949 6.18172 3.28205 8.2248 3.28205C10.2679 3.28205 11.5069 4.93949 11.5069 6.97436V11.8974ZM8.2248 16C9.12737 16 9.86583 15.2615 9.86583 14.359H6.58378C6.58378 15.2615 7.31403 16 8.2248 16Z" fill="#686687"/>
</svg>
