<svg width="16" height="16" viewBox="0 0 16 16" fill="none" xmlns="http://www.w3.org/2000/svg">
<g clip-path="url(#clip0_7102_77061)">
<path d="M2.39377 14.2732H5.34459V8.69945H10.5905V14.2732H13.5413V5.90163L7.96754 1.72677L2.39377 5.90163V14.2732ZM2.39377 16C1.91289 16 1.50488 15.8324 1.16972 15.4973C0.834569 15.1621 0.666992 14.7541 0.666992 14.2732V5.90163C0.666992 5.63934 0.728923 5.38433 0.852784 5.1366C0.976646 4.88888 1.14787 4.68487 1.36645 4.52458L6.91836 0.349719C7.07865 0.233144 7.24987 0.145712 7.43202 0.0874242C7.61417 0.0291364 7.79268 -7.62939e-06 7.96754 -7.62939e-06C8.15697 -7.62939e-06 8.33912 0.0291364 8.51399 0.0874242C8.68885 0.145712 8.85643 0.233144 9.01672 0.349719L14.5686 4.52458C14.7872 4.68487 14.9621 4.88888 15.0932 5.1366C15.2244 5.38433 15.2899 5.63934 15.2899 5.90163V14.2732C15.2899 14.7541 15.1187 15.1621 14.7763 15.4973C14.4338 15.8324 14.0222 16 13.5413 16H8.99486V10.2951H6.94022V16H2.39377Z" fill="#153AC7"/>
</g>
<defs>
<clipPath id="clip0_7102_77061">
<rect width="16" height="16" fill="white"/>
</clipPath>
</defs>
</svg>
