<svg width="18" height="19" viewBox="0 0 18 19" fill="none" xmlns="http://www.w3.org/2000/svg">
<g clip-path="url(#clip0_1154_6097)">
<path d="M9.63117 6.32078V1.41169C9.63117 1.14675 9.72078 0.928572 9.9 0.757143C10.0792 0.585714 10.2935 0.5 10.5429 0.5H17.0883C17.3532 0.5 17.5714 0.585714 17.7429 0.757143C17.9143 0.928572 18 1.14675 18 1.41169V6.32078C18 6.58571 17.9143 6.80779 17.7429 6.98701C17.5714 7.16623 17.3532 7.25584 17.0883 7.25584H10.5429C10.2935 7.25584 10.0792 7.16623 9.9 6.98701C9.72078 6.80779 9.63117 6.58571 9.63117 6.32078ZM0 9.52338V1.41169C0 1.14675 0.0857144 0.928572 0.257143 0.757143C0.428572 0.585714 0.646753 0.5 0.911688 0.5H7.45714C7.70649 0.5 7.92078 0.585714 8.1 0.757143C8.27922 0.928572 8.36883 1.14675 8.36883 1.41169V9.52338C8.36883 9.78831 8.27922 10.0104 8.1 10.1896C7.92078 10.3688 7.70649 10.4584 7.45714 10.4584H0.911688C0.646753 10.4584 0.428572 10.3688 0.257143 10.1896C0.0857144 10.0104 0 9.78831 0 9.52338ZM9.63117 17.5416V9.42987C9.63117 9.16494 9.72078 8.94675 9.9 8.77532C10.0792 8.6039 10.2935 8.51818 10.5429 8.51818H17.0883C17.3532 8.51818 17.5714 8.6039 17.7429 8.77532C17.9143 8.94675 18 9.16494 18 9.42987V17.5416C18 17.8065 17.9143 18.0286 17.7429 18.2078C17.5714 18.387 17.3532 18.4766 17.0883 18.4766H10.5429C10.2935 18.4766 10.0792 18.387 9.9 18.2078C9.72078 18.0286 9.63117 17.8065 9.63117 17.5416ZM0 17.5416V12.6325C0 12.3675 0.0857144 12.1494 0.257143 11.9779C0.428572 11.8065 0.646753 11.7208 0.911688 11.7208H7.45714C7.70649 11.7208 7.92078 11.8065 8.1 11.9779C8.27922 12.1494 8.36883 12.3675 8.36883 12.6325V17.5416C8.36883 17.8065 8.27922 18.0286 8.1 18.2078C7.92078 18.387 7.70649 18.4766 7.45714 18.4766H0.911688C0.646753 18.4766 0.428572 18.387 0.257143 18.2078C0.0857144 18.0286 0 17.8065 0 17.5416ZM1.84675 8.61169H6.52208V2.34675H1.84675V8.61169ZM11.4779 16.6299H16.1532V10.3649H11.4779V16.6299ZM11.4779 5.40909H16.1532V2.34675H11.4779V5.40909ZM1.84675 16.6299H6.52208V13.5675H1.84675V16.6299Z" fill="black"/>
</g>
<defs>
<clipPath id="clip0_1154_6097">
<rect width="18" height="18" fill="white" transform="translate(0 0.5)"/>
</clipPath>
</defs>
</svg>
