<svg width="20" height="20" viewBox="0 0 20 20" fill="none" xmlns="http://www.w3.org/2000/svg">
<g clip-path="url(#clip0_7102_1593)">
<path d="M2.99245 17.8415H6.68098V10.8743H13.2384V17.8415H16.9269V7.37705L9.95967 2.15847L2.99245 7.37705V17.8415ZM2.99245 20C2.39136 20 1.88134 19.7905 1.4624 19.3716C1.04346 18.9526 0.833984 18.4426 0.833984 17.8415V7.37705C0.833984 7.04918 0.911398 6.73042 1.06622 6.42076C1.22105 6.11111 1.43508 5.8561 1.7083 5.65574L8.64819 0.437159C8.84856 0.291439 9.06258 0.18215 9.29027 0.10929C9.51795 0.03643 9.74109 0 9.95967 0C10.1965 0 10.4241 0.03643 10.6427 0.10929C10.8613 0.18215 11.0708 0.291439 11.2711 0.437159L18.211 5.65574C18.4843 5.8561 18.7028 6.11111 18.8668 6.42076C19.0307 6.73042 19.1127 7.04918 19.1127 7.37705V17.8415C19.1127 18.4426 18.8986 18.9526 18.4706 19.3716C18.0425 19.7905 17.528 20 16.9269 20H11.2438V12.8689H8.67551V20H2.99245Z" fill="#B8BABC"/>
</g>
<defs>
<clipPath id="clip0_7102_1593">
<rect width="20" height="20" fill="white"/>
</clipPath>
</defs>
</svg>
