<svg width="20" height="21" viewBox="0 0 20 21" fill="none" xmlns="http://www.w3.org/2000/svg">
<path d="M10 14.3866C11.0637 14.3866 11.9663 14.0158 12.7079 13.2742C13.4494 12.5326 13.8202 11.63 13.8202 10.5663C13.8202 9.50266 13.4494 8.60004 12.7079 7.85847C11.9663 7.11689 11.0637 6.74611 10 6.74611C8.93633 6.74611 8.03371 7.11689 7.29214 7.85847C6.55056 8.60004 6.17978 9.50266 6.17978 10.5663C6.17978 11.63 6.55056 12.5326 7.29214 13.2742C8.03371 14.0158 8.93633 14.3866 10 14.3866ZM10 12.8809C9.35581 12.8809 8.80899 12.6562 8.35955 12.2068C7.91011 11.7573 7.68539 11.2105 7.68539 10.5663C7.68539 9.92214 7.91011 9.37532 8.35955 8.92588C8.80899 8.47644 9.35581 8.25172 10 8.25172C10.6442 8.25172 11.191 8.47644 11.6404 8.92588C12.0899 9.37532 12.3146 9.92214 12.3146 10.5663C12.3146 11.2105 12.0899 11.7573 11.6404 12.2068C11.191 12.6562 10.6442 12.8809 10 12.8809ZM10 17.6C7.88764 17.6 5.96255 17.0195 4.22472 15.8585C2.48689 14.6974 1.13109 13.1806 0.157303 11.3079C0.11236 11.203 0.0749064 11.0869 0.0449438 10.9596C0.0149813 10.8322 0 10.7012 0 10.5663C0 10.4315 0.0149813 10.2967 0.0449438 10.1618C0.0749064 10.027 0.11236 9.91465 0.157303 9.82476C1.13109 7.9521 2.48689 6.43525 4.22472 5.2742C5.96255 4.11315 7.88764 3.53262 10 3.53262C12.1124 3.53262 14.0375 4.11315 15.7753 5.2742C17.5131 6.43525 18.8689 7.9521 19.8427 9.82476C19.8876 9.91465 19.9251 10.027 19.9551 10.1618C19.985 10.2967 20 10.4315 20 10.5663C20 10.7012 19.985 10.8322 19.9551 10.9596C19.9251 11.0869 19.8876 11.203 19.8427 11.3079C18.8689 13.1806 17.5131 14.6974 15.7753 15.8585C14.0375 17.0195 12.1124 17.6 10 17.6ZM10 15.9596C11.8127 15.9596 13.4757 15.469 14.9888 14.4877C16.5019 13.5064 17.6554 12.1993 18.4494 10.5663C17.6554 8.93337 16.5019 7.62626 14.9888 6.64498C13.4757 5.66371 11.8127 5.17307 10 5.17307C8.18727 5.17307 6.52434 5.66371 5.01124 6.64498C3.49813 7.62626 2.33708 8.93337 1.52809 10.5663C2.33708 12.1993 3.49813 13.5064 5.01124 14.4877C6.52434 15.469 8.18727 15.9596 10 15.9596Z" fill="black"/>
</svg>
