<svg width="16" height="16" viewBox="0 0 16 16" fill="none" xmlns="http://www.w3.org/2000/svg">
<g clip-path="url(#clip0_7102_78550)">
<path d="M8.56104 5.17403V0.81039C8.56104 0.574892 8.64069 0.380952 8.8 0.228572C8.95931 0.0761906 9.14978 0 9.37143 0H15.1896C15.4251 0 15.619 0.0761906 15.7714 0.228572C15.9238 0.380952 16 0.574892 16 0.81039V5.17403C16 5.40952 15.9238 5.60693 15.7714 5.76623C15.619 5.92554 15.4251 6.0052 15.1896 6.0052H9.37143C9.14978 6.0052 8.95931 5.92554 8.8 5.76623C8.64069 5.60693 8.56104 5.40952 8.56104 5.17403ZM0 8.02078V0.81039C0 0.574892 0.0761906 0.380952 0.228572 0.228572C0.380952 0.0761906 0.574892 0 0.81039 0H6.62857C6.85022 0 7.04069 0.0761906 7.2 0.228572C7.35931 0.380952 7.43896 0.574892 7.43896 0.81039V8.02078C7.43896 8.25628 7.35931 8.45368 7.2 8.61299C7.04069 8.77229 6.85022 8.85195 6.62857 8.85195H0.81039C0.574892 8.85195 0.380952 8.77229 0.228572 8.61299C0.0761906 8.45368 0 8.25628 0 8.02078ZM8.56104 15.1481V7.93766C8.56104 7.70216 8.64069 7.50823 8.8 7.35584C8.95931 7.20346 9.14978 7.12727 9.37143 7.12727H15.1896C15.4251 7.12727 15.619 7.20346 15.7714 7.35584C15.9238 7.50823 16 7.70216 16 7.93766V15.1481C16 15.3836 15.9238 15.581 15.7714 15.7403C15.619 15.8996 15.4251 15.9792 15.1896 15.9792H9.37143C9.14978 15.9792 8.95931 15.8996 8.8 15.7403C8.64069 15.581 8.56104 15.3836 8.56104 15.1481ZM0 15.1481V10.7844C0 10.5489 0.0761906 10.355 0.228572 10.2026C0.380952 10.0502 0.574892 9.97403 0.81039 9.97403H6.62857C6.85022 9.97403 7.04069 10.0502 7.2 10.2026C7.35931 10.355 7.43896 10.5489 7.43896 10.7844V15.1481C7.43896 15.3836 7.35931 15.581 7.2 15.7403C7.04069 15.8996 6.85022 15.9792 6.62857 15.9792H0.81039C0.574892 15.9792 0.380952 15.8996 0.228572 15.7403C0.0761906 15.581 0 15.3836 0 15.1481ZM1.64156 7.21039H5.7974V1.64156H1.64156V7.21039ZM10.2026 14.3377H14.3584V8.76883H10.2026V14.3377ZM10.2026 4.36364H14.3584V1.64156H10.2026V4.36364ZM1.64156 14.3377H5.7974V11.6156H1.64156V14.3377Z" fill="#153AC7"/>
</g>
<defs>
<clipPath id="clip0_7102_78550">
<rect width="16" height="16" fill="white"/>
</clipPath>
</defs>
</svg>
