<svg width="20" height="21" viewBox="0 0 20 21" fill="none" xmlns="http://www.w3.org/2000/svg">
<g clip-path="url(#clip0_1_18594)">
<path d="M10.2315 0.19928C11.4969 0.19928 12.5694 0.642953 13.4491 1.5303C14.3287 2.41764 14.7685 3.50175 14.7685 4.78261V6.70391H16.1343C16.6435 6.70391 17.0795 6.88524 17.4421 7.24789C17.8048 7.61054 17.9861 8.0465 17.9861 8.55576V18.3706C17.9861 18.8644 17.8048 19.2926 17.4421 19.6553C17.0795 20.018 16.6435 20.1993 16.1343 20.1993H4.3287C3.81944 20.1993 3.38735 20.018 3.03241 19.6553C2.67747 19.2926 2.5 18.8644 2.5 18.3706V8.55576C2.5 8.0465 2.67747 7.61054 3.03241 7.24789C3.38735 6.88524 3.81944 6.70391 4.3287 6.70391H5.69444V4.78261C5.69444 3.50175 6.13426 2.41764 7.01389 1.5303C7.89352 0.642953 8.96605 0.19928 10.2315 0.19928ZM10.2315 2.02798C9.47531 2.02798 8.83488 2.29419 8.31018 2.82659C7.78549 3.359 7.52315 4.01101 7.52315 4.78261V6.70391H12.9398V4.78261C12.9398 4.01101 12.6775 3.359 12.1528 2.82659C11.6281 2.29419 10.9877 2.02798 10.2315 2.02798ZM4.3287 18.3706H16.1343V8.55576H4.3287V18.3706ZM10.2315 11.6808C9.73765 11.6808 9.31713 11.8698 8.96991 12.2479C8.62268 12.626 8.44907 13.0465 8.44907 13.5095C8.44907 13.9879 8.62268 14.3968 8.96991 14.7363C9.31713 15.0758 9.73765 15.2456 10.2315 15.2456C10.7253 15.2456 11.1458 15.0758 11.4931 14.7363C11.8403 14.3968 12.0139 13.9879 12.0139 13.5095C12.0139 13.0465 11.8403 12.626 11.4931 12.2479C11.1458 11.8698 10.7253 11.6808 10.2315 11.6808ZM4.3287 8.55576V18.3706V8.55576Z" fill="black"/>
</g>
<defs>
<clipPath id="clip0_1_18594">
<rect width="20" height="20" fill="white" transform="translate(0 0.19928)"/>
</clipPath>
</defs>
</svg>
