<svg width="12" height="13" viewBox="0 0 12 13" fill="none" xmlns="http://www.w3.org/2000/svg">
<g clip-path="url(#clip0_7102_82257)">
<path d="M10.3603 6.07195C10.2539 5.03688 9.83555 4.15175 9.1052 3.41657C8.37485 2.68138 7.4873 2.27025 6.44256 2.18319V0.5C7.94196 0.616082 9.21403 1.19891 10.2588 2.24849C11.3035 3.29806 11.8839 4.57255 12 6.07195H10.3603ZM6.44256 12.4855V10.8023C7.4873 10.7249 8.37001 10.321 9.09069 9.59069C9.81137 8.86034 10.2346 7.97763 10.3603 6.94256H12C11.8839 8.44196 11.3035 9.71403 10.2588 10.7588C9.21403 11.8035 7.94196 12.3791 6.44256 12.4855ZM5.57195 12.4855C3.99516 12.3597 2.67231 11.7261 1.60339 10.5846C0.534462 9.44317 0 8.08404 0 6.50725C0 4.9208 0.534462 3.55683 1.60339 2.41536C2.67231 1.27388 3.99516 0.640266 5.57195 0.51451V2.1977C4.45949 2.29444 3.52358 2.75393 2.76421 3.57618C2.00484 4.39843 1.62515 5.37545 1.62515 6.50725C1.62515 7.63906 2.00484 8.61608 2.76421 9.43833C3.52358 10.2606 4.45949 10.7152 5.57195 10.8023V12.4855Z" fill="black"/>
</g>
<defs>
<clipPath id="clip0_7102_82257">
<rect width="12" height="12" fill="white" transform="translate(0 0.5)"/>
</clipPath>
</defs>
</svg>
