<svg width="14" height="14" viewBox="0 0 14 14" fill="none" xmlns="http://www.w3.org/2000/svg">
<g clip-path="url(#clip0_7102_76238)">
<path d="M2.09491 12.4891H4.67688V7.61202H9.26704V12.4891H11.849V5.16393L6.97196 1.51093L2.09491 5.16393V12.4891ZM2.09491 14C1.67415 14 1.31714 13.8534 1.02387 13.5601C0.730614 13.2668 0.583984 12.9098 0.583984 12.4891V5.16393C0.583984 4.93443 0.638174 4.71129 0.746553 4.49454C0.854931 4.27778 1.00475 4.09927 1.19601 3.95902L6.05393 0.306011C6.19418 0.204007 6.344 0.127505 6.50338 0.0765028C6.66276 0.025501 6.81896 0 6.97196 0C7.13772 0 7.2971 0.025501 7.4501 0.0765028C7.60311 0.127505 7.74974 0.204007 7.88999 0.306011L12.7479 3.95902C12.9392 4.09927 13.0922 4.27778 13.2069 4.49454C13.3217 4.71129 13.3791 4.93443 13.3791 5.16393V12.4891C13.3791 12.9098 13.2292 13.2668 12.9296 13.5601C12.63 13.8534 12.2698 14 11.849 14H7.87087V9.0082H6.07305V14H2.09491Z" fill="black"/>
</g>
<defs>
<clipPath id="clip0_7102_76238">
<rect width="14" height="14" fill="white"/>
</clipPath>
</defs>
</svg>
