<svg width="16" height="16" viewBox="0 0 16 16" fill="none" xmlns="http://www.w3.org/2000/svg">
<g clip-path="url(#clip0_7102_81192)">
<path d="M7.88201 7.76401C6.74926 7.76401 5.82104 7.40216 5.09735 6.67847C4.37365 5.95477 4.0118 5.02655 4.0118 3.89381C4.0118 2.74533 4.37365 1.80924 5.09735 1.08555C5.82104 0.361848 6.74926 0 7.88201 0C9.01475 0 9.9469 0.361848 10.6785 1.08555C11.41 1.80924 11.7758 2.74533 11.7758 3.89381C11.7758 5.02655 11.41 5.95477 10.6785 6.67847C9.9469 7.40216 9.01475 7.76401 7.88201 7.76401ZM0 16V13.4277C0 12.7827 0.165192 12.2203 0.495575 11.7404C0.825959 11.2606 1.2586 10.8948 1.79351 10.6431C2.86332 10.1554 3.89381 9.79351 4.88496 9.55752C5.87611 9.32153 6.87512 9.20354 7.88201 9.20354C8.90462 9.20354 9.90757 9.32547 10.8909 9.56932C11.8741 9.81318 12.8928 10.1711 13.9469 10.6431C14.4975 10.8791 14.942 11.237 15.2802 11.7168C15.6185 12.1967 15.7876 12.767 15.7876 13.4277V16H0ZM1.86431 14.1357H13.8997V13.4749C13.8997 13.2389 13.825 13.0069 13.6755 12.7788C13.5261 12.5506 13.3412 12.3894 13.1209 12.295C12.1455 11.823 11.2527 11.5005 10.4425 11.3274C9.63225 11.1544 8.77876 11.0678 7.88201 11.0678C7.00098 11.0678 6.13963 11.1544 5.29794 11.3274C4.45624 11.5005 3.56342 11.823 2.61947 12.295C2.39921 12.3894 2.21829 12.5506 2.0767 12.7788C1.9351 13.0069 1.86431 13.2389 1.86431 13.4749V14.1357ZM7.88201 5.87611C8.46411 5.87611 8.94395 5.68732 9.32153 5.30973C9.69912 4.93215 9.88791 4.46018 9.88791 3.89381C9.88791 3.29597 9.69912 2.81219 9.32153 2.44248C8.94395 2.07276 8.46411 1.88791 7.88201 1.88791C7.2999 1.88791 6.82006 2.07276 6.44248 2.44248C6.0649 2.81219 5.87611 3.2881 5.87611 3.87021C5.87611 4.45231 6.0649 4.93215 6.44248 5.30973C6.82006 5.68732 7.2999 5.87611 7.88201 5.87611Z" fill="#153AC7"/>
</g>
<defs>
<clipPath id="clip0_7102_81192">
<rect width="16" height="16" fill="white"/>
</clipPath>
</defs>
</svg>
