<svg width="14" height="15" viewBox="0 0 14 15" fill="none" xmlns="http://www.w3.org/2000/svg">
<g clip-path="url(#clip0_1_18590)">
<path d="M7.04222 11.02C7.2111 11.02 7.35464 10.9637 7.47286 10.8511C7.59107 10.7385 7.65018 10.5922 7.65018 10.412V7.45666C7.65018 7.29904 7.59107 7.16112 7.47286 7.04291C7.35464 6.92469 7.2111 6.86559 7.04222 6.86559C6.87334 6.86559 6.7298 6.92469 6.61158 7.04291C6.49337 7.16112 6.43426 7.30467 6.43426 7.47355V10.4289C6.43426 10.5978 6.49337 10.7385 6.61158 10.8511C6.7298 10.9637 6.87334 11.02 7.04222 11.02ZM6.99156 5.75099C7.19421 5.75099 7.36027 5.68907 7.48975 5.56522C7.61922 5.44138 7.68396 5.27813 7.68396 5.07548C7.68396 4.87282 7.61922 4.70394 7.48975 4.56884C7.36027 4.43374 7.19421 4.36619 6.99156 4.36619C6.7889 4.36619 6.62284 4.43374 6.49337 4.56884C6.36389 4.70394 6.29916 4.87282 6.29916 5.07548C6.29916 5.27813 6.36389 5.44138 6.49337 5.56522C6.62284 5.68907 6.7889 5.75099 6.99156 5.75099ZM6.99156 14.5327C6.0008 14.5327 5.08042 14.3553 4.2304 14.0007C3.38038 13.646 2.64013 13.1535 2.00965 12.523C1.37917 11.8925 0.88661 11.1523 0.531966 10.3023C0.177322 9.45224 0 8.53185 0 7.5411C0 6.5616 0.177322 5.64403 0.531966 4.78838C0.88661 3.93273 1.37917 3.19248 2.00965 2.56764C2.64013 1.94279 3.38038 1.44741 4.2304 1.08151C5.08042 0.715605 6.0008 0.532654 6.99156 0.532654C7.97105 0.532654 8.88862 0.715605 9.74427 1.08151C10.5999 1.44741 11.3402 1.94279 11.965 2.56764C12.5899 3.19248 13.0852 3.92992 13.4511 4.77994C13.817 5.62996 14 6.55035 14 7.5411C14 8.53185 13.817 9.45224 13.4511 10.3023C13.0852 11.1523 12.5899 11.8925 11.965 12.523C11.3402 13.1535 10.5999 13.646 9.74427 14.0007C8.88862 14.3553 7.97105 14.5327 6.99156 14.5327ZM6.99156 13.1985C8.54524 13.1985 9.87656 12.6468 10.9855 11.5435C12.0945 10.4402 12.649 9.10604 12.649 7.5411C12.649 5.98742 12.0945 4.6561 10.9855 3.54713C9.87656 2.43816 8.54524 1.88368 6.99156 1.88368C5.43788 1.88368 4.10655 2.43816 2.99759 3.54713C1.88862 4.6561 1.33414 5.98742 1.33414 7.5411C1.33414 9.10604 1.88862 10.4402 2.99759 11.5435C4.10655 12.6468 5.43788 13.1985 6.99156 13.1985Z" fill="black"/>
</g>
<defs>
<clipPath id="clip0_1_18590">
<rect width="14" height="14" fill="white" transform="translate(0 0.532654)"/>
</clipPath>
</defs>
</svg>
