<svg width="13" height="12" viewBox="0 0 13 12" fill="none" xmlns="http://www.w3.org/2000/svg">
<g clip-path="url(#clip0_7102_3881)">
<path d="M11.5432 6.85714H7.25753V11.1429C7.25753 11.6143 6.87182 12 6.40039 12C5.92896 12 5.54325 11.6143 5.54325 11.1429V6.85714H1.25753C0.786105 6.85714 0.400391 6.47143 0.400391 6C0.400391 5.52857 0.786105 5.14286 1.25753 5.14286H5.54325V0.857143C5.54325 0.385714 5.92896 0 6.40039 0C6.87182 0 7.25753 0.385714 7.25753 0.857143V5.14286H11.5432C12.0147 5.14286 12.4004 5.52857 12.4004 6C12.4004 6.47143 12.0147 6.85714 11.5432 6.85714Z" fill="black"/>
</g>
<defs>
<clipPath id="clip0_7102_3881">
<rect width="12" height="12" fill="white" transform="translate(0.400391)"/>
</clipPath>
</defs>
</svg>
