<svg width="17" height="16" viewBox="0 0 17 16" fill="none" xmlns="http://www.w3.org/2000/svg">
<g clip-path="url(#clip0_7102_78055)">
<path d="M3.06076 14.2732H6.01158V8.69945H11.2575V14.2732H14.2083V5.90163L8.63453 1.72677L3.06076 5.90163V14.2732ZM3.06076 16C2.57989 16 2.17187 15.8324 1.83672 15.4973C1.50156 15.1621 1.33398 14.7541 1.33398 14.2732V5.90163C1.33398 5.63934 1.39592 5.38433 1.51978 5.1366C1.64364 4.88888 1.81486 4.68487 2.03344 4.52458L7.58535 0.349719C7.74564 0.233144 7.91686 0.145712 8.09901 0.0874242C8.28116 0.0291364 8.45967 -7.62939e-06 8.63453 -7.62939e-06C8.82397 -7.62939e-06 9.00612 0.0291364 9.18098 0.0874242C9.35584 0.145712 9.52342 0.233144 9.68371 0.349719L15.2356 4.52458C15.4542 4.68487 15.6291 4.88888 15.7602 5.1366C15.8914 5.38433 15.9569 5.63934 15.9569 5.90163V14.2732C15.9569 14.7541 15.7857 15.1621 15.4433 15.4973C15.1008 15.8324 14.6892 16 14.2083 16H9.66185V10.2951H7.60721V16H3.06076Z" fill="#153AC7"/>
</g>
<defs>
<clipPath id="clip0_7102_78055">
<rect width="16" height="16" fill="white" transform="translate(0.666992)"/>
</clipPath>
</defs>
</svg>
