<svg width="16" height="16" viewBox="0 0 16 16" fill="none" xmlns="http://www.w3.org/2000/svg">
<g clip-path="url(#clip0_7102_82248)">
<path d="M0.773585 15.3333C0.484277 15.3333 0.264151 15.2075 0.113208 14.956C-0.0377358 14.7044 -0.0377358 14.4528 0.113208 14.2013L7.35849 1.72956C7.49685 1.46541 7.71069 1.33333 8 1.33333C8.28931 1.33333 8.50314 1.46541 8.64151 1.72956L15.8868 14.2013C16.0377 14.4528 16.0377 14.7044 15.8868 14.956C15.7358 15.2075 15.5157 15.3333 15.2264 15.3333H0.773585ZM8.07547 6.7673C7.91195 6.7673 7.77673 6.82076 7.66981 6.92767C7.56289 7.03459 7.50943 7.16981 7.50943 7.33333V10.3333C7.50943 10.4969 7.56289 10.6321 7.66981 10.739C7.77673 10.8459 7.91195 10.8994 8.07547 10.8994C8.23899 10.8994 8.37421 10.8459 8.48113 10.739C8.58805 10.6321 8.64151 10.4969 8.64151 10.3333V7.33333C8.64151 7.16981 8.58805 7.03459 8.48113 6.92767C8.37421 6.82076 8.23899 6.7673 8.07547 6.7673ZM8.07547 12.9748C8.23899 12.9748 8.3805 12.9151 8.5 12.7956C8.6195 12.6761 8.67924 12.5283 8.67924 12.3522C8.67924 12.1887 8.6195 12.0503 8.5 11.9371C8.3805 11.8239 8.23899 11.7673 8.07547 11.7673C7.91195 11.7673 7.77044 11.827 7.65094 11.9465C7.53145 12.066 7.4717 12.2075 7.4717 12.3711C7.4717 12.5346 7.53145 12.6761 7.65094 12.7956C7.77044 12.9151 7.91195 12.9748 8.07547 12.9748ZM1.86792 13.956H14.1321L8 3.3522L1.86792 13.956Z" fill="#E84754"/>
</g>
<defs>
<clipPath id="clip0_7102_82248">
<rect width="16" height="16" fill="white"/>
</clipPath>
</defs>
</svg>
