<svg width="41" height="40" viewBox="0 0 41 40" fill="none" xmlns="http://www.w3.org/2000/svg">
<g clip-path="url(#clip0_7102_909)">
<path d="M16.4482 35.699V24.8295H25.1437V35.699C25.1437 36.8946 26.122 37.8729 27.3176 37.8729H33.8393C35.035 37.8729 36.0132 36.8946 36.0132 35.699V20.4817H39.7088C40.7088 20.4817 41.1871 19.2426 40.4262 18.5904L22.2525 2.22101C21.4264 1.48188 20.1655 1.48188 19.3394 2.22101L1.16567 18.5904C0.426549 19.2426 0.883067 20.4817 1.88306 20.4817H5.57868V35.699C5.57868 36.8946 6.55693 37.8729 7.75258 37.8729H14.2743C15.4699 37.8729 16.4482 36.8946 16.4482 35.699Z" fill="#B8BABC"/>
</g>
<defs>
<clipPath id="clip0_7102_909">
<rect width="40" height="40" fill="white" transform="translate(0.800781)"/>
</clipPath>
</defs>
</svg>
