<svg width="20" height="20" viewBox="0 0 20 20" fill="none" xmlns="http://www.w3.org/2000/svg">
<g clip-path="url(#clip0_1_8234)">
<path d="M2.99148 17.8415H6.68V10.8743H13.2374V17.8415H16.9259V7.37704L9.95869 2.15847L2.99148 7.37704V17.8415ZM2.99148 20C2.39038 20 1.88037 19.7905 1.46142 19.3716C1.04248 18.9526 0.833008 18.4426 0.833008 17.8415V7.37704C0.833008 7.04918 0.910421 6.73041 1.06525 6.42076C1.22008 6.11111 1.4341 5.8561 1.70732 5.65573L8.64722 0.437155C8.84758 0.291435 9.0616 0.182146 9.28929 0.109286C9.51698 0.0364262 9.74011 -3.8147e-06 9.95869 -3.8147e-06C10.1955 -3.8147e-06 10.4232 0.0364262 10.6418 0.109286C10.8603 0.182146 11.0698 0.291435 11.2702 0.437155L18.2101 5.65573C18.4833 5.8561 18.7019 6.11111 18.8658 6.42076C19.0297 6.73041 19.1117 7.04918 19.1117 7.37704V17.8415C19.1117 18.4426 18.8977 18.9526 18.4696 19.3716C18.0416 19.7905 17.527 20 16.9259 20H11.2428V12.8688H8.67454V20H2.99148Z" fill="black"/>
</g>
<defs>
<clipPath id="clip0_1_8234">
<rect width="20" height="20" fill="white"/>
</clipPath>
</defs>
</svg>
