<svg width="13" height="12" viewBox="0 0 13 12" fill="none" xmlns="http://www.w3.org/2000/svg">
<g clip-path="url(#clip0_7102_938)">
<path d="M11.7434 6.85714H7.45773V11.1429C7.45773 11.6143 7.07201 12 6.60059 12C6.12916 12 5.74344 11.6143 5.74344 11.1429V6.85714H1.45773C0.9863 6.85714 0.600586 6.47143 0.600586 6C0.600586 5.52857 0.9863 5.14286 1.45773 5.14286H5.74344V0.857143C5.74344 0.385714 6.12916 0 6.60059 0C7.07201 0 7.45773 0.385714 7.45773 0.857143V5.14286H11.7434C12.2149 5.14286 12.6006 5.52857 12.6006 6C12.6006 6.47143 12.2149 6.85714 11.7434 6.85714Z" fill="black"/>
</g>
<defs>
<clipPath id="clip0_7102_938">
<rect width="12" height="12" fill="white" transform="translate(0.600586)"/>
</clipPath>
</defs>
</svg>
