<svg width="14" height="15" viewBox="0 0 14 15" fill="none" xmlns="http://www.w3.org/2000/svg">
<g clip-path="url(#clip0_7102_88900)">
<path d="M7.04222 10.7863C7.2111 10.7863 7.35464 10.73 7.47286 10.6174C7.59107 10.5048 7.65018 10.3585 7.65018 10.1783V7.22296C7.65018 7.06534 7.59107 6.92742 7.47286 6.8092C7.35464 6.69099 7.2111 6.63188 7.04222 6.63188C6.87334 6.63188 6.7298 6.69099 6.61158 6.8092C6.49337 6.92742 6.43426 7.07096 6.43426 7.23984V10.1952C6.43426 10.3641 6.49337 10.5048 6.61158 10.6174C6.7298 10.73 6.87334 10.7863 7.04222 10.7863ZM6.99156 5.51729C7.19421 5.51729 7.36027 5.45536 7.48975 5.33152C7.61922 5.20768 7.68396 5.04443 7.68396 4.84177C7.68396 4.63912 7.61922 4.47024 7.48975 4.33514C7.36027 4.20004 7.19421 4.13248 6.99156 4.13248C6.7889 4.13248 6.62284 4.20004 6.49337 4.33514C6.36389 4.47024 6.29916 4.63912 6.29916 4.84177C6.29916 5.04443 6.36389 5.20768 6.49337 5.33152C6.62284 5.45536 6.7889 5.51729 6.99156 5.51729ZM6.99156 14.299C6.0008 14.299 5.08042 14.1216 4.2304 13.767C3.38038 13.4123 2.64013 12.9198 2.00965 12.2893C1.37917 11.6588 0.88661 10.9186 0.531966 10.0686C0.177322 9.21853 0 8.29815 0 7.30739C0 6.3279 0.177322 5.41033 0.531966 4.55468C0.88661 3.69903 1.37917 2.95878 2.00965 2.33393C2.64013 1.70908 3.38038 1.21371 4.2304 0.847804C5.08042 0.481902 6.0008 0.29895 6.99156 0.29895C7.97105 0.29895 8.88862 0.481902 9.74427 0.847804C10.5999 1.21371 11.3402 1.70908 11.965 2.33393C12.5899 2.95878 13.0852 3.69622 13.4511 4.54624C13.817 5.39626 14 6.31664 14 7.30739C14 8.29815 13.817 9.21853 13.4511 10.0686C13.0852 10.9186 12.5899 11.6588 11.965 12.2893C11.3402 12.9198 10.5999 13.4123 9.74427 13.767C8.88862 14.1216 7.97105 14.299 6.99156 14.299ZM6.99156 12.9648C8.54524 12.9648 9.87656 12.4131 10.9855 11.3098C12.0945 10.2065 12.649 8.87233 12.649 7.30739C12.649 5.75372 12.0945 4.42239 10.9855 3.31343C9.87656 2.20446 8.54524 1.64998 6.99156 1.64998C5.43788 1.64998 4.10655 2.20446 2.99759 3.31343C1.88862 4.42239 1.33414 5.75372 1.33414 7.30739C1.33414 8.87233 1.88862 10.2065 2.99759 11.3098C4.10655 12.4131 5.43788 12.9648 6.99156 12.9648Z" fill="black"/>
</g>
<defs>
<clipPath id="clip0_7102_88900">
<rect width="14" height="14" fill="white" transform="translate(0 0.29895)"/>
</clipPath>
</defs>
</svg>
