<svg width="16" height="16" viewBox="0 0 16 16" fill="none" xmlns="http://www.w3.org/2000/svg">
<g clip-path="url(#clip0_7102_80665)">
<path d="M4.83925 13.5115V12.4426H10.5511V13.5115H4.83925ZM3.41962 16C3.02992 16 2.69589 15.8608 2.41754 15.5825C2.13918 15.3041 2 14.9701 2 14.5804V3.18998C2 2.80028 2.13918 2.46625 2.41754 2.18789C2.69589 1.90953 3.02992 1.77035 3.41962 1.77035H6.27557V0.718163C6.27557 0.517745 6.34516 0.347947 6.48434 0.208768C6.62352 0.0695894 6.79332 0 6.99374 0H8.39666C8.59708 0 8.76688 0.0695894 8.90605 0.208768C9.04523 0.347947 9.11482 0.517745 9.11482 0.718163V1.77035H11.9708C12.3605 1.77035 12.6945 1.90953 12.9729 2.18789C13.2512 2.46625 13.3904 2.80028 13.3904 3.18998V14.5804C13.3904 14.9701 13.2512 15.3041 12.9729 15.5825C12.6945 15.8608 12.3605 16 11.9708 16H3.41962ZM3.41962 14.5804H11.9708V3.18998H9.11482C9.11482 3.40153 9.04523 3.57411 8.90605 3.70772C8.76688 3.84134 8.59708 3.90814 8.39666 3.90814H6.99374C6.79332 3.90814 6.62352 3.83855 6.48434 3.69937C6.34516 3.56019 6.27557 3.3904 6.27557 3.18998H3.41962V14.5804ZM7.6952 8.18372C7.3055 8.18372 6.97147 8.04454 6.69311 7.76618C6.41475 7.48782 6.27557 7.15379 6.27557 6.76409C6.27557 6.36326 6.41475 6.02366 6.69311 5.7453C6.97147 5.46695 7.3055 5.32777 7.6952 5.32777C8.0849 5.32777 8.41893 5.46695 8.69729 5.7453C8.97564 6.02366 9.11482 6.36326 9.11482 6.76409C9.11482 7.15379 8.97564 7.48782 8.69729 7.76618C8.41893 8.04454 8.0849 8.18372 7.6952 8.18372ZM4.83925 11.023V10.6054C4.83925 10.3271 4.91719 10.071 5.07307 9.83716C5.22895 9.60334 5.44607 9.42519 5.72443 9.30271C6.02505 9.18024 6.3396 9.08003 6.66806 9.00209C6.99652 8.92415 7.3389 8.88518 7.6952 8.88518C8.0515 8.88518 8.39388 8.92415 8.72234 9.00209C9.0508 9.08003 9.36534 9.18024 9.66597 9.30271C9.94433 9.42519 10.1614 9.60334 10.3173 9.83716C10.4732 10.071 10.5511 10.3271 10.5511 10.6054V11.023H4.83925Z" fill="#153AC7"/>
</g>
<defs>
<clipPath id="clip0_7102_80665">
<rect width="16" height="16" fill="white"/>
</clipPath>
</defs>
</svg>
