<svg width="12" height="13" viewBox="0 0 12 13" fill="none" xmlns="http://www.w3.org/2000/svg">
<g clip-path="url(#clip0_7102_76623)">
<path d="M11.1429 7.35714H6.85714V11.6429C6.85714 12.1143 6.47143 12.5 6 12.5C5.52857 12.5 5.14286 12.1143 5.14286 11.6429V7.35714H0.857143C0.385714 7.35714 0 6.97143 0 6.5C0 6.02857 0.385714 5.64286 0.857143 5.64286H5.14286V1.35714C5.14286 0.885714 5.52857 0.5 6 0.5C6.47143 0.5 6.85714 0.885714 6.85714 1.35714V5.64286H11.1429C11.6143 5.64286 12 6.02857 12 6.5C12 6.97143 11.6143 7.35714 11.1429 7.35714Z" fill="white"/>
</g>
<defs>
<clipPath id="clip0_7102_76623">
<rect width="12" height="12" fill="white" transform="translate(0 0.5)"/>
</clipPath>
</defs>
</svg>
