<svg width="17" height="16" viewBox="0 0 17 16" fill="none" xmlns="http://www.w3.org/2000/svg">
<g clip-path="url(#clip0_7102_77558)">
<path d="M2.72678 14.2732H5.6776V8.69945H10.9235V14.2732H13.8743V5.90163L8.30055 1.72677L2.72678 5.90163V14.2732ZM2.72678 16C2.2459 16 1.83789 15.8324 1.50273 15.4973C1.16758 15.1621 1 14.7541 1 14.2732V5.90163C1 5.63934 1.06193 5.38433 1.18579 5.1366C1.30965 4.88888 1.48087 4.68487 1.69945 4.52458L7.25137 0.349719C7.41166 0.233144 7.58288 0.145712 7.76503 0.0874242C7.94718 0.0291364 8.12568 -7.62939e-06 8.30055 -7.62939e-06C8.48998 -7.62939e-06 8.67213 0.0291364 8.84699 0.0874242C9.02186 0.145712 9.18943 0.233144 9.34973 0.349719L14.9016 4.52458C15.1202 4.68487 15.2951 4.88888 15.4262 5.1366C15.5574 5.38433 15.623 5.63934 15.623 5.90163V14.2732C15.623 14.7541 15.4517 15.1621 15.1093 15.4973C14.7668 15.8324 14.3552 16 13.8743 16H9.32787V10.2951H7.27322V16H2.72678Z" fill="#153AC7"/>
</g>
<defs>
<clipPath id="clip0_7102_77558">
<rect width="16" height="16" fill="white" transform="translate(0.333008)"/>
</clipPath>
</defs>
</svg>
