<svg width="13" height="12" viewBox="0 0 13 12" fill="none" xmlns="http://www.w3.org/2000/svg">
<g clip-path="url(#clip0_7102_921)">
<path d="M11.9436 6.85714H7.65792V11.1429C7.65792 11.6143 7.27221 12 6.80078 12C6.32935 12 5.94364 11.6143 5.94364 11.1429V6.85714H1.65792C1.1865 6.85714 0.800781 6.47143 0.800781 6C0.800781 5.52857 1.1865 5.14286 1.65792 5.14286H5.94364V0.857143C5.94364 0.385714 6.32935 0 6.80078 0C7.27221 0 7.65792 0.385714 7.65792 0.857143V5.14286H11.9436C12.4151 5.14286 12.8008 5.52857 12.8008 6C12.8008 6.47143 12.4151 6.85714 11.9436 6.85714Z" fill="black"/>
</g>
<defs>
<clipPath id="clip0_7102_921">
<rect width="12" height="12" fill="white" transform="translate(0.800781)"/>
</clipPath>
</defs>
</svg>
