<svg width="21" height="20" viewBox="0 0 21 20" fill="none" xmlns="http://www.w3.org/2000/svg">
<g clip-path="url(#clip0_7102_3968)">
<path d="M7.92778 19.4934C7.67044 19.4934 7.44929 19.4009 7.26433 19.2159C7.07936 19.031 6.98688 18.8018 6.98688 18.5283C6.98688 18.2549 7.07936 18.0257 7.26433 17.8408C7.44929 17.6558 7.67044 17.5633 7.92778 17.5633H9.06167V15.1508H2.57193C2.04117 15.1508 1.59082 14.9658 1.2209 14.5959C0.850977 14.226 0.666016 13.7756 0.666016 13.2449V1.90591C0.666016 1.37515 0.850977 0.924809 1.2209 0.554885C1.59082 0.184962 2.04117 0 2.57193 0H18.736C19.2667 0 19.7211 0.184962 20.0991 0.554885C20.477 0.924809 20.666 1.37515 20.666 1.90591V13.2449C20.666 13.7756 20.477 14.226 20.0991 14.5959C19.7211 14.9658 19.2667 15.1508 18.736 15.1508H12.2462V17.5633H13.3801C13.6375 17.5633 13.8586 17.6558 14.0436 17.8408C14.2285 18.0257 14.321 18.2549 14.321 18.5283C14.321 18.8018 14.2285 19.031 14.0436 19.2159C13.8586 19.4009 13.6375 19.4934 13.3801 19.4934H7.92778ZM2.57193 13.2449H18.736V1.90591H2.57193V13.2449ZM2.57193 13.2449V1.90591V13.2449Z" fill="#153AC7"/>
</g>
<defs>
<clipPath id="clip0_7102_3968">
<rect width="20" height="20" fill="white" transform="translate(0.666016)"/>
</clipPath>
</defs>
</svg>
