<svg width="16" height="16" viewBox="0 0 16 16" fill="none" xmlns="http://www.w3.org/2000/svg">
<g clip-path="url(#clip0_7102_79604)">
<path d="M5.80941 15.5947C5.60354 15.5947 5.42662 15.5207 5.27865 15.3727C5.13068 15.2248 5.05669 15.0414 5.05669 14.8227C5.05669 14.6039 5.13068 14.4206 5.27865 14.2726C5.42662 14.1246 5.60354 14.0507 5.80941 14.0507H6.71653V12.1206H1.52473C1.10012 12.1206 0.739847 11.9727 0.443908 11.6767C0.147969 11.3808 0 11.0205 0 10.5959V1.52473C0 1.10012 0.147969 0.739846 0.443908 0.443907C0.739847 0.147968 1.10012 -1.43051e-06 1.52473 -1.43051e-06H14.456C14.8806 -1.43051e-06 15.2441 0.147968 15.5464 0.443907C15.8488 0.739846 16 1.10012 16 1.52473V10.5959C16 11.0205 15.8488 11.3808 15.5464 11.6767C15.2441 11.9727 14.8806 12.1206 14.456 12.1206H9.26417V14.0507H10.1713C10.3772 14.0507 10.5541 14.1246 10.7021 14.2726C10.85 14.4206 10.924 14.6039 10.924 14.8227C10.924 15.0414 10.85 15.2248 10.7021 15.3727C10.5541 15.5207 10.3772 15.5947 10.1713 15.5947H5.80941ZM1.52473 10.5959H14.456V1.52473H1.52473V10.5959ZM1.52473 10.5959V1.52473V10.5959Z" fill="#153AC7"/>
</g>
<defs>
<clipPath id="clip0_7102_79604">
<rect width="16" height="16" fill="white"/>
</clipPath>
</defs>
</svg>
