<svg width="14" height="14" viewBox="0 0 14 14" fill="none" xmlns="http://www.w3.org/2000/svg">
<g clip-path="url(#clip0_7102_76508)">
<path d="M7.04222 10.4873C7.2111 10.4873 7.35464 10.431 7.47286 10.3185C7.59107 10.2059 7.65018 10.0595 7.65018 9.87937V6.924C7.65018 6.76639 7.59107 6.62847 7.47286 6.51025C7.35464 6.39204 7.2111 6.33293 7.04222 6.33293C6.87334 6.33293 6.7298 6.39204 6.61158 6.51025C6.49337 6.62847 6.43426 6.77201 6.43426 6.94089V9.89626C6.43426 10.0651 6.49337 10.2059 6.61158 10.3185C6.7298 10.431 6.87334 10.4873 7.04222 10.4873ZM6.99156 5.21834C7.19421 5.21834 7.36027 5.15641 7.48975 5.03257C7.61922 4.90873 7.68396 4.74548 7.68396 4.54282C7.68396 4.34017 7.61922 4.17129 7.48975 4.03619C7.36027 3.90109 7.19421 3.83353 6.99156 3.83353C6.7889 3.83353 6.62284 3.90109 6.49337 4.03619C6.36389 4.17129 6.29916 4.34017 6.29916 4.54282C6.29916 4.74548 6.36389 4.90873 6.49337 5.03257C6.62284 5.15641 6.7889 5.21834 6.99156 5.21834ZM6.99156 14C6.0008 14 5.08042 13.8227 4.2304 13.468C3.38038 13.1134 2.64013 12.6208 2.00965 11.9903C1.37917 11.3599 0.88661 10.6196 0.531966 9.7696C0.177322 8.91958 0 7.9992 0 7.00844C0 6.02895 0.177322 5.11138 0.531966 4.25573C0.88661 3.40008 1.37917 2.65983 2.00965 2.03498C2.64013 1.41013 3.38038 0.914757 4.2304 0.548854C5.08042 0.182951 6.0008 0 6.99156 0C7.97105 0 8.88862 0.182951 9.74427 0.548854C10.5999 0.914757 11.3402 1.41013 11.965 2.03498C12.5899 2.65983 13.0852 3.39727 13.4511 4.24729C13.817 5.09731 14 6.01769 14 7.00844C14 7.9992 13.817 8.91958 13.4511 9.7696C13.0852 10.6196 12.5899 11.3599 11.965 11.9903C11.3402 12.6208 10.5999 13.1134 9.74427 13.468C8.88862 13.8227 7.97105 14 6.99156 14ZM6.99156 12.6659C8.54524 12.6659 9.87656 12.1142 10.9855 11.0109C12.0945 9.90752 12.649 8.57338 12.649 7.00844C12.649 5.45476 12.0945 4.12344 10.9855 3.01448C9.87656 1.90551 8.54524 1.35103 6.99156 1.35103C5.43788 1.35103 4.10655 1.90551 2.99759 3.01448C1.88862 4.12344 1.33414 5.45476 1.33414 7.00844C1.33414 8.57338 1.88862 9.90752 2.99759 11.0109C4.10655 12.1142 5.43788 12.6659 6.99156 12.6659Z" fill="black"/>
</g>
<defs>
<clipPath id="clip0_7102_76508">
<rect width="14" height="14" fill="white"/>
</clipPath>
</defs>
</svg>
