<svg width="20" height="21" viewBox="0 0 20 21" fill="none" xmlns="http://www.w3.org/2000/svg">
<g clip-path="url(#clip0_1_18584)">
<path d="M9.85251 9.90429C8.43658 9.90429 7.2763 9.45198 6.37168 8.54736C5.46706 7.64274 5.01475 6.48247 5.01475 5.06654C5.01475 3.63094 5.46706 2.46083 6.37168 1.55621C7.2763 0.65159 8.43658 0.19928 9.85251 0.19928C11.2684 0.19928 12.4336 0.65159 13.3481 1.55621C14.2625 2.46083 14.7198 3.63094 14.7198 5.06654C14.7198 6.48247 14.2625 7.64274 13.3481 8.54736C12.4336 9.45198 11.2684 9.90429 9.85251 9.90429ZM0 20.1993V16.9839C0 16.1776 0.20649 15.4746 0.619469 14.8748C1.03245 14.275 1.57325 13.8178 2.24189 13.5031C3.57915 12.8935 4.86726 12.4412 6.10619 12.1462C7.34513 11.8512 8.5939 11.7037 9.85251 11.7037C11.1308 11.7037 12.3845 11.8561 13.6136 12.1609C14.8427 12.4657 16.116 12.9131 17.4336 13.5031C18.1219 13.7981 18.6775 14.2455 19.1003 14.8453C19.5231 15.4451 19.7345 16.158 19.7345 16.9839V20.1993H0ZM2.33038 17.8689H17.3746V17.0429C17.3746 16.748 17.2812 16.4579 17.0944 16.1727C16.9076 15.8876 16.6765 15.686 16.4012 15.568C15.1819 14.978 14.0659 14.5749 13.0531 14.3586C12.0403 14.1423 10.9735 14.0341 9.85251 14.0341C8.75123 14.0341 7.67453 14.1423 6.62242 14.3586C5.5703 14.5749 4.45428 14.978 3.27434 15.568C2.99902 15.686 2.77286 15.8876 2.59587 16.1727C2.41888 16.4579 2.33038 16.748 2.33038 17.0429V17.8689ZM9.85251 7.54441C10.5801 7.54441 11.1799 7.30842 11.6519 6.83645C12.1239 6.36447 12.3599 5.7745 12.3599 5.06654C12.3599 4.31924 12.1239 3.71452 11.6519 3.25238C11.1799 2.79023 10.5801 2.55916 9.85251 2.55916C9.12488 2.55916 8.52507 2.79023 8.0531 3.25238C7.58112 3.71452 7.34513 4.30941 7.34513 5.03704C7.34513 5.76467 7.58112 6.36447 8.0531 6.83645C8.52507 7.30842 9.12488 7.54441 9.85251 7.54441Z" fill="black"/>
</g>
<defs>
<clipPath id="clip0_1_18584">
<rect width="20" height="20" fill="white" transform="translate(0 0.19928)"/>
</clipPath>
</defs>
</svg>
