<svg width="16" height="17" viewBox="0 0 16 17" fill="none" xmlns="http://www.w3.org/2000/svg">
<g clip-path="url(#clip0_7102_1410)">
<path d="M8.18519 0.298935C9.19753 0.298935 10.0556 0.653873 10.7593 1.36375C11.463 2.07363 11.8148 2.94091 11.8148 3.9656V5.50264H12.9074C13.3148 5.50264 13.6636 5.6477 13.9537 5.93782C14.2438 6.22795 14.3889 6.57671 14.3889 6.98412V14.836C14.3889 15.231 14.2438 15.5736 13.9537 15.8637C13.6636 16.1539 13.3148 16.2989 12.9074 16.2989H3.46296C3.05556 16.2989 2.70988 16.1539 2.42593 15.8637C2.14198 15.5736 2 15.231 2 14.836V6.98412C2 6.57671 2.14198 6.22795 2.42593 5.93782C2.70988 5.6477 3.05556 5.50264 3.46296 5.50264H4.55556V3.9656C4.55556 2.94091 4.90741 2.07363 5.61111 1.36375C6.31481 0.653873 7.17284 0.298935 8.18519 0.298935ZM8.18519 1.7619C7.58025 1.7619 7.0679 1.97486 6.64815 2.40079C6.2284 2.82671 6.01852 3.34832 6.01852 3.9656V5.50264H10.3519V3.9656C10.3519 3.34832 10.142 2.82671 9.72222 2.40079C9.30247 1.97486 8.79012 1.7619 8.18519 1.7619ZM3.46296 14.836H12.9074V6.98412H3.46296V14.836ZM8.18519 9.48412C7.79012 9.48412 7.4537 9.63535 7.17593 9.93782C6.89815 10.2403 6.75926 10.5767 6.75926 10.9471C6.75926 11.3298 6.89815 11.657 7.17593 11.9286C7.4537 12.2002 7.79012 12.336 8.18519 12.336C8.58025 12.336 8.91667 12.2002 9.19444 11.9286C9.47222 11.657 9.61111 11.3298 9.61111 10.9471C9.61111 10.5767 9.47222 10.2403 9.19444 9.93782C8.91667 9.63535 8.58025 9.48412 8.18519 9.48412ZM3.46296 6.98412V14.836V6.98412Z" fill="#B8BABC"/>
</g>
<defs>
<clipPath id="clip0_7102_1410">
<rect width="16" height="16" fill="white" transform="translate(0 0.29895)"/>
</clipPath>
</defs>
</svg>
