<svg width="21" height="20" viewBox="0 0 21 20" fill="none" xmlns="http://www.w3.org/2000/svg">
<g clip-path="url(#clip0_7102_3924)">
<path d="M7.59477 19.4934C7.33743 19.4934 7.11628 19.4009 6.93132 19.2159C6.74636 19.031 6.65388 18.8018 6.65388 18.5283C6.65388 18.2549 6.74636 18.0257 6.93132 17.8408C7.11628 17.6558 7.33743 17.5633 7.59477 17.5633H8.72867V15.1508H2.23892C1.70816 15.1508 1.25782 14.9658 0.887893 14.5959C0.51797 14.226 0.333008 13.7756 0.333008 13.2449V1.90591C0.333008 1.37515 0.51797 0.924809 0.887893 0.554885C1.25782 0.184962 1.70816 0 2.23892 0H18.403C18.9337 0 19.3881 0.184962 19.7661 0.554885C20.144 0.924809 20.333 1.37515 20.333 1.90591V13.2449C20.333 13.7756 20.144 14.226 19.7661 14.5959C19.3881 14.9658 18.9337 15.1508 18.403 15.1508H11.9132V17.5633H13.0471C13.3045 17.5633 13.5256 17.6558 13.7106 17.8408C13.8955 18.0257 13.988 18.2549 13.988 18.5283C13.988 18.8018 13.8955 19.031 13.7106 19.2159C13.5256 19.4009 13.3045 19.4934 13.0471 19.4934H7.59477ZM2.23892 13.2449H18.403V1.90591H2.23892V13.2449ZM2.23892 13.2449V1.90591V13.2449Z" fill="#153AC7"/>
</g>
<defs>
<clipPath id="clip0_7102_3924">
<rect width="20" height="20" fill="white" transform="translate(0.333008)"/>
</clipPath>
</defs>
</svg>
