<svg width="16" height="16" viewBox="0 0 16 16" fill="none" xmlns="http://www.w3.org/2000/svg">
<g clip-path="url(#clip0_7102_80138)">
<path d="M7.88533 9.61158C7.65372 9.61158 7.4575 9.53116 7.29667 9.37033C7.13583 9.20949 7.05541 9.01327 7.05541 8.78166C7.05541 8.55006 7.13583 8.35384 7.29667 8.193C7.4575 8.03217 7.65372 7.95175 7.88533 7.95175C8.11693 7.95175 8.31315 8.03217 8.47399 8.193C8.63482 8.35384 8.71524 8.55006 8.71524 8.78166C8.71524 9.01327 8.63482 9.20949 8.47399 9.37033C8.31315 9.53116 8.11693 9.61158 7.88533 9.61158ZM4.79727 9.61158C4.56567 9.61158 4.36944 9.53116 4.20861 9.37033C4.04777 9.20949 3.96735 9.01327 3.96735 8.78166C3.96735 8.55006 4.04777 8.35384 4.20861 8.193C4.36944 8.03217 4.56567 7.95175 4.79727 7.95175C5.02887 7.95175 5.22509 8.03217 5.38593 8.193C5.54677 8.35384 5.62718 8.55006 5.62718 8.78166C5.62718 9.01327 5.54677 9.20949 5.38593 9.37033C5.22509 9.53116 5.02887 9.61158 4.79727 9.61158ZM10.9734 9.61158C10.7418 9.61158 10.5456 9.53116 10.3847 9.37033C10.2239 9.20949 10.1435 9.01327 10.1435 8.78166C10.1435 8.55006 10.2239 8.35384 10.3847 8.193C10.5456 8.03217 10.7418 7.95175 10.9734 7.95175C11.205 7.95175 11.4012 8.03217 11.562 8.193C11.7229 8.35384 11.8033 8.55006 11.8033 8.78166C11.8033 9.01327 11.7229 9.20949 11.562 9.37033C11.4012 9.53116 11.205 9.61158 10.9734 9.61158ZM7.88533 12.6996C7.65372 12.6996 7.4575 12.6192 7.29667 12.4584C7.13583 12.2975 7.05541 12.1013 7.05541 11.8697C7.05541 11.6381 7.13583 11.4419 7.29667 11.2811C7.4575 11.1202 7.65372 11.0398 7.88533 11.0398C8.11693 11.0398 8.31315 11.1202 8.47399 11.2811C8.63482 11.4419 8.71524 11.6381 8.71524 11.8697C8.71524 12.1013 8.63482 12.2975 8.47399 12.4584C8.31315 12.6192 8.11693 12.6996 7.88533 12.6996ZM4.79727 12.6996C4.56567 12.6996 4.36944 12.6192 4.20861 12.4584C4.04777 12.2975 3.96735 12.1013 3.96735 11.8697C3.96735 11.6381 4.04777 11.4419 4.20861 11.2811C4.36944 11.1202 4.56567 11.0398 4.79727 11.0398C5.02887 11.0398 5.22509 11.1202 5.38593 11.2811C5.54677 11.4419 5.62718 11.6381 5.62718 11.8697C5.62718 12.1013 5.54677 12.2975 5.38593 12.4584C5.22509 12.6192 5.02887 12.6996 4.79727 12.6996ZM10.9734 12.6996C10.7418 12.6996 10.5456 12.6192 10.3847 12.4584C10.2239 12.2975 10.1435 12.1013 10.1435 11.8697C10.1435 11.6381 10.2239 11.4419 10.3847 11.2811C10.5456 11.1202 10.7418 11.0398 10.9734 11.0398C11.205 11.0398 11.4012 11.1202 11.562 11.2811C11.7229 11.4419 11.8033 11.6381 11.8033 11.8697C11.8033 12.1013 11.7229 12.2975 11.562 12.4584C11.4012 12.6192 11.205 12.6996 10.9734 12.6996ZM2.19172 16C1.77998 16 1.42292 15.8488 1.12055 15.5464C0.818178 15.2441 0.666992 14.887 0.666992 14.4753V2.70205C0.666992 2.27744 0.818178 1.91395 1.12055 1.61158C1.42292 1.30921 1.77998 1.15802 2.19172 1.15802H3.34974V0.714113C3.34974 0.533977 3.42051 0.369924 3.56205 0.221954C3.70358 0.0739847 3.87085 0 4.06386 0C4.26973 0 4.44343 0.0739847 4.58497 0.221954C4.7265 0.369924 4.79727 0.533977 4.79727 0.714113V1.15802H10.9734V0.714113C10.9734 0.533977 11.0442 0.369924 11.1857 0.221954C11.3272 0.0739847 11.5009 0 11.7068 0C11.8998 0 12.0671 0.0739847 12.2086 0.221954C12.3501 0.369924 12.4209 0.533977 12.4209 0.714113V1.15802H13.5789C14.0035 1.15802 14.367 1.30921 14.6694 1.61158C14.9718 1.91395 15.123 2.27744 15.123 2.70205V14.4753C15.123 14.887 14.9718 15.2441 14.6694 15.5464C14.367 15.8488 14.0035 16 13.5789 16H2.19172ZM2.19172 14.4753H13.5789V6.27262H2.19172V14.4753ZM2.19172 5.1146H13.5789V2.70205H2.19172V5.1146ZM2.19172 5.1146V2.70205V5.1146Z" fill="#153AC7"/>
</g>
<defs>
<clipPath id="clip0_7102_80138">
<rect width="16" height="16" fill="white"/>
</clipPath>
</defs>
</svg>
