<svg width="13" height="12" viewBox="0 0 13 12" fill="none" xmlns="http://www.w3.org/2000/svg">
<g clip-path="url(#clip0_7102_934)">
<path d="M11.2434 6.85714H6.95773V11.1429C6.95773 11.6143 6.57201 12 6.10059 12C5.62916 12 5.24344 11.6143 5.24344 11.1429V6.85714H0.957729C0.4863 6.85714 0.100586 6.47143 0.100586 6C0.100586 5.52857 0.4863 5.14286 0.957729 5.14286H5.24344V0.857143C5.24344 0.385714 5.62916 0 6.10059 0C6.57201 0 6.95773 0.385714 6.95773 0.857143V5.14286H11.2434C11.7149 5.14286 12.1006 5.52857 12.1006 6C12.1006 6.47143 11.7149 6.85714 11.2434 6.85714Z" fill="black"/>
</g>
<defs>
<clipPath id="clip0_7102_934">
<rect width="12" height="12" fill="white" transform="translate(0.100586)"/>
</clipPath>
</defs>
</svg>
