<svg width="12" height="12" viewBox="0 0 12 12" fill="none" xmlns="http://www.w3.org/2000/svg">
<path d="M5.93027 2.04675V0.311866C5.93027 0.0320453 5.59449 -0.104756 5.40172 0.0942276L3.0388 2.45094C2.91443 2.5753 2.91443 2.76807 3.0388 2.89243L5.3955 5.24914C5.59449 5.4419 5.93027 5.3051 5.93027 5.02528V3.2904C8.24967 3.2904 10.084 5.41703 9.57415 7.82349C9.2819 9.23502 8.13774 10.373 6.73242 10.6652C4.51252 11.1316 2.53512 9.60812 2.23664 7.54989C2.19312 7.25141 1.93195 7.02134 1.62726 7.02134C1.25416 7.02134 0.955688 7.3509 1.00543 7.724C1.39096 10.4538 3.99018 12.4747 6.93141 11.9026C8.87149 11.5233 10.4323 9.96256 10.8116 8.02247C11.4272 4.83252 9.00208 2.04675 5.93027 2.04675Z" fill="#686687"/>
</svg>
