<svg width="13" height="12" viewBox="0 0 13 12" fill="none" xmlns="http://www.w3.org/2000/svg">
<g clip-path="url(#clip0_7102_845)">
<path d="M11.3431 6.85714H7.05734V11.1429C7.05734 11.6143 6.67162 12 6.2002 12C5.72877 12 5.34305 11.6143 5.34305 11.1429V6.85714H1.05734C0.58591 6.85714 0.200195 6.47143 0.200195 6C0.200195 5.52857 0.58591 5.14286 1.05734 5.14286H5.34305V0.857143C5.34305 0.385714 5.72877 0 6.2002 0C6.67162 0 7.05734 0.385714 7.05734 0.857143V5.14286H11.3431C11.8145 5.14286 12.2002 5.52857 12.2002 6C12.2002 6.47143 11.8145 6.85714 11.3431 6.85714Z" fill="black"/>
</g>
<defs>
<clipPath id="clip0_7102_845">
<rect width="12" height="12" fill="white" transform="translate(0.200195)"/>
</clipPath>
</defs>
</svg>
