<svg width="16" height="16" viewBox="0 0 16 16" fill="none" xmlns="http://www.w3.org/2000/svg">
<g clip-path="url(#clip0_7102_79077)">
<path d="M8 0C3.584 0 0 3.584 0 8C0 12.416 3.584 16 8 16C12.416 16 16 12.416 16 8C16 3.584 12.416 0 8 0ZM13.968 5.696L11.744 6.616C11.336 5.528 10.48 4.664 9.384 4.264L10.304 2.04C11.984 2.68 13.32 4.016 13.968 5.696ZM8 10.4C6.672 10.4 5.6 9.328 5.6 8C5.6 6.672 6.672 5.6 8 5.6C9.328 5.6 10.4 6.672 10.4 8C10.4 9.328 9.328 10.4 8 10.4ZM5.704 2.032L6.64 4.256C5.536 4.656 4.664 5.528 4.256 6.632L2.032 5.704C2.68 4.016 4.016 2.68 5.704 2.032ZM2.032 10.296L4.256 9.376C4.664 10.48 5.528 11.344 6.632 11.744L5.696 13.968C4.016 13.32 2.68 11.984 2.032 10.296ZM10.304 13.968L9.384 11.744C10.48 11.336 11.344 10.472 11.744 9.368L13.968 10.304C13.32 11.984 11.984 13.32 10.304 13.968Z" fill="#153AC7"/>
</g>
<defs>
<clipPath id="clip0_7102_79077">
<rect width="16" height="16" fill="white"/>
</clipPath>
</defs>
</svg>
