<svg width="41" height="40" viewBox="0 0 41 40" fill="none" xmlns="http://www.w3.org/2000/svg">
<g clip-path="url(#clip0_7102_926)">
<path d="M16.248 35.699V24.8295H24.9435V35.699C24.9435 36.8946 25.9218 37.8729 27.1174 37.8729H33.6391C34.8348 37.8729 35.813 36.8946 35.813 35.699V20.4817H39.5086C40.5086 20.4817 40.9869 19.2426 40.226 18.5904L22.0523 2.22101C21.2262 1.48188 19.9653 1.48188 19.1392 2.22101L0.965479 18.5904C0.226354 19.2426 0.682872 20.4817 1.68286 20.4817H5.37849V35.699C5.37849 36.8946 6.35674 37.8729 7.55238 37.8729H14.0741C15.2697 37.8729 16.248 36.8946 16.248 35.699Z" fill="#B8BABC"/>
</g>
<defs>
<clipPath id="clip0_7102_926">
<rect width="40" height="40" fill="white" transform="translate(0.600586)"/>
</clipPath>
</defs>
</svg>
