<svg width="16" height="16" viewBox="0 0 16 16" fill="none" xmlns="http://www.w3.org/2000/svg">
<g clip-path="url(#clip0_7102_1392)">
<path d="M2.39279 14.2732H5.34361V8.69945H10.5895V14.2732H13.5403V5.90164L7.96656 1.72678L2.39279 5.90164V14.2732ZM2.39279 16C1.91192 16 1.5039 15.8324 1.16875 15.4973C0.833593 15.1621 0.666016 14.7541 0.666016 14.2732V5.90164C0.666016 5.63934 0.727946 5.38433 0.851808 5.13661C0.975669 4.88889 1.14689 4.68488 1.36547 4.52459L6.91738 0.349727C7.07767 0.233151 7.24889 0.14572 7.43104 0.0874318C7.61319 0.029144 7.7917 0 7.96656 0C8.156 0 8.33815 0.029144 8.51301 0.0874318C8.68787 0.14572 8.85545 0.233151 9.01574 0.349727L14.5677 4.52459C14.7862 4.68488 14.9611 4.88889 15.0922 5.13661C15.2234 5.38433 15.289 5.63934 15.289 5.90164V14.2732C15.289 14.7541 15.1177 15.1621 14.7753 15.4973C14.4329 15.8324 14.0212 16 13.5403 16H8.99388V10.2951H6.93924V16H2.39279Z" fill="#B8BABC"/>
</g>
<defs>
<clipPath id="clip0_7102_1392">
<rect width="16" height="16" fill="white"/>
</clipPath>
</defs>
</svg>
