<svg width="16" height="16" viewBox="0 0 16 16" fill="none" xmlns="http://www.w3.org/2000/svg">
<path d="M10.1009 16C9.97273 16 9.85524 15.9786 9.74843 15.9359C9.64163 15.8932 9.5455 15.8291 9.46005 15.7437L4.1196 10.1255C4.01991 10.0116 3.9309 9.86204 3.85257 9.6769C3.77425 9.49177 3.73508 9.31375 3.73508 9.14286C3.73508 8.82955 3.84545 8.56253 4.06619 8.34179C4.28693 8.12105 4.55395 8.01068 4.86726 8.01068H6.78982C7.50188 8.01068 8.13562 7.79706 8.69102 7.36983C9.24643 6.94259 9.57398 6.3231 9.67367 5.51135H3.52146C3.27936 5.51135 3.07643 5.42946 2.91265 5.26569C2.74888 5.10191 2.66699 4.89898 2.66699 4.65688C2.66699 4.41478 2.74888 4.2154 2.91265 4.05875C3.07643 3.90209 3.27936 3.82376 3.52146 3.82376H9.63094C9.47429 3.19715 9.1147 2.68803 8.55217 2.2964C7.98964 1.90476 7.38083 1.70895 6.72574 1.70895H3.52146C3.27936 1.70895 3.07643 1.62706 2.91265 1.46328C2.74888 1.29951 2.66699 1.09657 2.66699 0.854473C2.66699 0.626613 2.74888 0.427236 2.91265 0.256342C3.07643 0.0854472 3.27936 0 3.52146 0H12.4934C12.7355 0 12.9385 0.0854472 13.1022 0.256342C13.266 0.427236 13.3479 0.626613 13.3479 0.854473C13.3479 1.09657 13.266 1.29951 13.1022 1.46328C12.9385 1.62706 12.7355 1.70895 12.4934 1.70895H10.165C10.4498 1.9368 10.7026 2.26079 10.9233 2.68091C11.1441 3.10102 11.3043 3.48198 11.404 3.82376H12.4934C12.7355 3.82376 12.9385 3.90209 13.1022 4.05875C13.266 4.2154 13.3479 4.41478 13.3479 4.65688C13.3479 4.89898 13.266 5.10191 13.1022 5.26569C12.9385 5.42946 12.7355 5.51135 12.4934 5.51135H11.404C11.2616 6.79306 10.7738 7.80418 9.94069 8.54473C9.10758 9.28527 8.12138 9.66978 6.98208 9.69826H6.06352L10.7204 14.5688C10.9767 14.8536 11.0301 15.1633 10.8806 15.498C10.7311 15.8327 10.4712 16 10.1009 16Z" fill="#153AC7"/>
</svg>
