<svg width="16" height="17" viewBox="0 0 16 17" fill="none" xmlns="http://www.w3.org/2000/svg">
<path d="M8 11.6488C8.85094 11.6488 9.57303 11.3521 10.1663 10.7589C10.7596 10.1656 11.0562 9.44352 11.0562 8.59259C11.0562 7.74165 10.7596 7.01955 10.1663 6.4263C9.57303 5.83304 8.85094 5.53641 8 5.53641C7.14906 5.53641 6.42697 5.83304 5.83371 6.4263C5.24045 7.01955 4.94382 7.74165 4.94382 8.59259C4.94382 9.44352 5.24045 10.1656 5.83371 10.7589C6.42697 11.3521 7.14906 11.6488 8 11.6488ZM8 10.4443C7.48464 10.4443 7.04719 10.2645 6.68764 9.90495C6.32809 9.5454 6.14831 9.10794 6.14831 8.59259C6.14831 8.07723 6.32809 7.63978 6.68764 7.28023C7.04719 6.92068 7.48464 6.7409 8 6.7409C8.51536 6.7409 8.95281 6.92068 9.31236 7.28023C9.67191 7.63978 9.85169 8.07723 9.85169 8.59259C9.85169 9.10794 9.67191 9.5454 9.31236 9.90495C8.95281 10.2645 8.51536 10.4443 8 10.4443ZM8 14.2196C6.31011 14.2196 4.77004 13.7551 3.37978 12.8263C1.98951 11.8975 0.904869 10.684 0.125843 9.18585C0.0898876 9.10195 0.0599251 9.00907 0.0359551 8.90719C0.011985 8.80532 0 8.70045 0 8.59259C0 8.48472 0.011985 8.37686 0.0359551 8.26899C0.0599251 8.16113 0.0898876 8.07124 0.125843 7.99933C0.904869 6.5012 1.98951 5.28772 3.37978 4.35888C4.77004 3.43004 6.31011 2.96562 8 2.96562C9.68989 2.96562 11.23 3.43004 12.6202 4.35888C14.0105 5.28772 15.0951 6.5012 15.8742 7.99933C15.9101 8.07124 15.9401 8.16113 15.964 8.26899C15.988 8.37686 16 8.48472 16 8.59259C16 8.70045 15.988 8.80532 15.964 8.90719C15.9401 9.00907 15.9101 9.10195 15.8742 9.18585C15.0951 10.684 14.0105 11.8975 12.6202 12.8263C11.23 13.7551 9.68989 14.2196 8 14.2196ZM8 12.9072C9.45019 12.9072 10.7805 12.5147 11.991 11.7297C13.2015 10.9446 14.1243 9.89896 14.7596 8.59259C14.1243 7.28622 13.2015 6.24053 11.991 5.45551C10.7805 4.67049 9.45019 4.27798 8 4.27798C6.54981 4.27798 5.21948 4.67049 4.00899 5.45551C2.7985 6.24053 1.86966 7.28622 1.22247 8.59259C1.86966 9.89896 2.7985 10.9446 4.00899 11.7297C5.21948 12.5147 6.54981 12.9072 8 12.9072Z" fill="#B8BABC"/>
</svg>
