<svg width="10" height="8" viewBox="0 0 10 8" fill="none" xmlns="http://www.w3.org/2000/svg">
<path fill-rule="evenodd" clip-rule="evenodd" d="M2.70659 3.29925C2.61435 3.20374 2.504 3.12755 2.382 3.07514C2.25999 3.02274 2.12877 2.99515 1.99599 2.994C1.86321 2.99284 1.73154 3.01814 1.60864 3.06842C1.48574 3.11871 1.37409 3.19296 1.2802 3.28685C1.18631 3.38074 1.11205 3.4924 1.06177 3.61529C1.01149 3.73819 0.986189 3.86987 0.987342 4.00265C0.988496 4.13543 1.01608 4.26665 1.06849 4.38865C1.1209 4.51065 1.19708 4.621 1.29259 4.71325L3.29259 6.71325C3.48012 6.90072 3.73443 7.00603 3.99959 7.00603C4.26476 7.00603 4.51906 6.90072 4.70659 6.71325L8.70659 2.71325C8.8021 2.621 8.87829 2.51065 8.93069 2.38865C8.9831 2.26665 9.01069 2.13543 9.01184 2.00265C9.013 1.86987 8.98769 1.73819 8.93741 1.61529C8.88713 1.4924 8.81288 1.38074 8.71899 1.28685C8.62509 1.19296 8.51344 1.11871 8.39055 1.06842C8.26765 1.01814 8.13597 0.992841 8.00319 0.993995C7.87041 0.995149 7.73919 1.02274 7.61719 1.07514C7.49518 1.12755 7.38484 1.20374 7.29259 1.29925L3.99959 4.59225L2.70659 3.29925Z" fill="#FAFBFC"/>
</svg>
