<svg width="12" height="12" viewBox="0 0 12 12" fill="none" xmlns="http://www.w3.org/2000/svg">
<path d="M6 7.03321L2.25461 10.7786C2.10701 10.9262 1.93481 11 1.73801 11C1.54121 11 1.369 10.9262 1.2214 10.7786C1.0738 10.631 1 10.4588 1 10.262C1 10.0652 1.0738 9.89299 1.2214 9.74539L4.96679 6L1.2214 2.25461C1.0738 2.10701 1 1.93481 1 1.73801C1 1.54121 1.0738 1.369 1.2214 1.2214C1.369 1.0738 1.54121 1 1.73801 1C1.93481 1 2.10701 1.0738 2.25461 1.2214L6 4.96679L9.74539 1.2214C9.89299 1.0738 10.0652 1 10.262 1C10.4588 1 10.631 1.0738 10.7786 1.2214C10.9262 1.369 11 1.54121 11 1.73801C11 1.93481 10.9262 2.10701 10.7786 2.25461L7.03321 6L10.7786 9.74539C10.9262 9.89299 11 10.0652 11 10.262C11 10.4588 10.9262 10.631 10.7786 10.7786C10.631 10.9262 10.4588 11 10.262 11C10.0652 11 9.89299 10.9262 9.74539 10.7786L6 7.03321Z" fill="#030037"/>
</svg>
