<svg width="13" height="12" viewBox="0 0 13 12" fill="none" xmlns="http://www.w3.org/2000/svg">
<g clip-path="url(#clip0_7102_1036)">
<path d="M11.6429 6.85714H7.35714V11.1429C7.35714 11.6143 6.97143 12 6.5 12C6.02857 12 5.64286 11.6143 5.64286 11.1429V6.85714H1.35714C0.885714 6.85714 0.5 6.47143 0.5 6C0.5 5.52857 0.885714 5.14286 1.35714 5.14286H5.64286V0.857143C5.64286 0.385714 6.02857 0 6.5 0C6.97143 0 7.35714 0.385714 7.35714 0.857143V5.14286H11.6429C12.1143 5.14286 12.5 5.52857 12.5 6C12.5 6.47143 12.1143 6.85714 11.6429 6.85714Z" fill="black"/>
</g>
<defs>
<clipPath id="clip0_7102_1036">
<rect width="12" height="12" fill="white" transform="translate(0.5)"/>
</clipPath>
</defs>
</svg>
