<svg width="9" height="6" viewBox="0 0 9 6" fill="none" xmlns="http://www.w3.org/2000/svg">
<path d="M8.0127 0.714289C8.0127 0.860503 7.95689 1.00679 7.84528 1.11822L3.27386 5.68965C3.1627 5.80179 3.01627 5.85715 2.86984 5.85715C2.72341 5.85715 2.57734 5.80134 2.46591 5.68973L0.180195 3.40402C0.0685882 3.29286 0.0126953 3.14643 0.0126953 3C0.0126953 2.67357 0.27966 2.42857 0.584124 2.42857C0.730338 2.42857 0.876624 2.48438 0.988053 2.59599L2.86984 4.47857L7.0377 0.310718C7.14841 0.198753 7.29484 0.14286 7.44127 0.14286C7.74662 0.14286 8.0127 0.387503 8.0127 0.714289Z" fill="white"/>
</svg>
