<svg width="9" height="6" viewBox="0 0 9 6" fill="none" xmlns="http://www.w3.org/2000/svg">
<path d="M8.0127 0.714281C8.0127 0.860496 7.95689 1.00678 7.84528 1.11821L3.27386 5.68964C3.1627 5.80178 3.01627 5.85714 2.86984 5.85714C2.72341 5.85714 2.57734 5.80133 2.46591 5.68973L0.180195 3.40401C0.0685882 3.29285 0.0126953 3.14642 0.0126953 3C0.0126953 2.67357 0.27966 2.42857 0.584124 2.42857C0.730338 2.42857 0.876624 2.48437 0.988053 2.59598L2.86984 4.47857L7.0377 0.31071C7.14841 0.198746 7.29484 0.142853 7.44127 0.142853C7.74662 0.142853 8.0127 0.387496 8.0127 0.714281Z" fill="white"/>
</svg>
