<svg width="9" height="6" viewBox="0 0 9 6" fill="none" xmlns="http://www.w3.org/2000/svg">
<path d="M8.0127 0.714286C8.0127 0.8605 7.95689 1.00679 7.84528 1.11821L3.27386 5.68964C3.1627 5.80179 3.01627 5.85714 2.86984 5.85714C2.72341 5.85714 2.57734 5.80134 2.46591 5.68973L0.180195 3.40402C0.0685882 3.29286 0.0126953 3.14643 0.0126953 3C0.0126953 2.67357 0.27966 2.42857 0.584124 2.42857C0.730338 2.42857 0.876624 2.48438 0.988053 2.59598L2.86984 4.47857L7.0377 0.310715C7.14841 0.19875 7.29484 0.142858 7.44127 0.142858C7.74662 0.142858 8.0127 0.3875 8.0127 0.714286Z" fill="white"/>
</svg>
